<svg width="27" height="23" viewBox="0 0 27 23" fill="none" xmlns="http://www.w3.org/2000/svg">
    <path d="M10.2517 15.1958C10.2517 15.6154 10.1861 16.0454 10.055 16.486C9.9239 16.9265 9.69837 17.3251 9.37844 17.6818C9.05851 18.0384 8.67827 18.2168 8.23771 18.2168C7.79715 18.2168 7.4169 18.0384 7.09697 17.6818C6.77704 17.3251 6.55152 16.9265 6.4204 16.486C6.28928 16.0454 6.22372 15.6154 6.22372 15.1958C6.22372 14.7762 6.28928 14.3461 6.4204 13.9056C6.55152 13.465 6.77704 13.0664 7.09697 12.7098C7.4169 12.3531 7.79715 12.1748 8.23771 12.1748C8.67827 12.1748 9.05851 12.3531 9.37844 12.7098C9.69837 13.0664 9.9239 13.465 10.055 13.9056C10.1861 14.3461 10.2517 14.7762 10.2517 15.1958ZM20.3216 15.1958C20.3216 15.6154 20.2561 16.0454 20.1249 16.486C19.9938 16.9265 19.7683 17.3251 19.4484 17.6818C19.1284 18.0384 18.7482 18.2168 18.3076 18.2168C17.8671 18.2168 17.4868 18.0384 17.1669 17.6818C16.847 17.3251 16.6214 16.9265 16.4903 16.486C16.3592 16.0454 16.2937 15.6154 16.2937 15.1958C16.2937 14.7762 16.3592 14.3461 16.4903 13.9056C16.6214 13.465 16.847 13.0664 17.1669 12.7098C17.4868 12.3531 17.8671 12.1748 18.3076 12.1748C18.7482 12.1748 19.1284 12.3531 19.4484 12.7098C19.7683 13.0664 19.9938 13.465 20.1249 13.9056C20.2561 14.3461 20.3216 14.7762 20.3216 15.1958ZM22.8391 15.1958C22.8391 13.937 22.4772 12.8671 21.7534 11.986C21.0297 11.1049 20.0489 10.6643 18.8111 10.6643C18.3811 10.6643 17.3583 10.7744 15.743 10.9947C14.9982 11.1101 14.1748 11.1678 13.2727 11.1678C12.3706 11.1678 11.5471 11.1101 10.8024 10.9947C9.20799 10.7744 8.18526 10.6643 7.73421 10.6643C6.49645 10.6643 5.51568 11.1049 4.7919 11.986C4.06813 12.8671 3.70624 13.937 3.70624 15.1958C3.70624 16.1189 3.87407 16.9239 4.20973 17.611C4.5454 18.298 4.97022 18.8383 5.48421 19.2316C5.9982 19.625 6.63806 19.9397 7.40379 20.1757C8.16953 20.4117 8.90379 20.5664 9.60659 20.6398C10.3094 20.7133 11.0909 20.75 11.951 20.75H14.5944C15.4545 20.75 16.236 20.7133 16.9388 20.6398C17.6416 20.5664 18.3758 20.4117 19.1416 20.1757C19.9073 19.9397 20.5471 19.625 21.0611 19.2316C21.5751 18.8383 21.9999 18.298 22.3356 17.611C22.6713 16.9239 22.8391 16.1189 22.8391 15.1958ZM26.3636 12.4265C26.3636 14.5979 26.0437 16.3339 25.4038 17.6346C25.0052 18.4423 24.4519 19.1398 23.7438 19.7272C23.0358 20.3147 22.2963 20.7657 21.5253 21.0804C20.7543 21.3951 19.8627 21.6442 18.8505 21.8278C17.8382 22.0113 16.9388 22.1267 16.152 22.1739C15.3653 22.2211 14.4895 22.2447 13.5244 22.2447C12.7062 22.2447 11.9615 22.229 11.2902 22.1975C10.6188 22.1661 9.84522 22.1005 8.96935 22.0008C8.09348 21.9012 7.29365 21.7439 6.56987 21.5288C5.8461 21.3138 5.12757 21.0437 4.41428 20.7185C3.70099 20.3933 3.06638 19.9685 2.51043 19.444C1.95449 18.9196 1.50344 18.3164 1.15729 17.6346C0.506938 16.3444 0.181763 14.6084 0.181763 12.4265C0.181763 9.94053 0.895049 7.86361 2.32162 6.19578C2.03841 5.33564 1.8968 4.44403 1.8968 3.52095C1.8968 2.30417 2.16428 1.16081 2.69925 0.0908813C3.83211 0.0908813 4.82862 0.298049 5.68876 0.712385C6.5489 1.12672 7.54015 1.77445 8.66253 2.65557C10.2045 2.28843 11.8251 2.10487 13.5244 2.10487C15.0769 2.10487 16.5454 2.2727 17.93 2.60836C19.0314 1.74822 20.0122 1.11361 20.8723 0.704518C21.7325 0.295427 22.7237 0.0908813 23.8461 0.0908813C24.3811 1.16081 24.6485 2.30417 24.6485 3.52095C24.6485 4.43354 24.5069 5.31466 24.2237 6.16431C25.6503 7.84263 26.3636 9.93004 26.3636 12.4265Z" fill="#255ce8" />
</svg>
    