<svg
    width="26"
    height="55"
    viewBox="0 0 26 55"
    fill="none"
    xmlns="http://www.w3.org/2000/svg"
>
    <path
        d="M14.651 2C14.651 1.08816 13.9118 0.348968 13 0.348968C12.0882 0.348968 11.349 1.08816 11.349 2L14.651 2ZM11.8325 54.1675C12.4773 54.8122 13.5227 54.8122 14.1675 54.1675L24.6746 43.6604C25.3193 43.0156 25.3193 41.9702 24.6746 41.3254C24.0298 40.6807 22.9844 40.6807 22.3396 41.3254L13 50.6651L3.66035 41.3254C3.01558 40.6807 1.97021 40.6807 1.32544 41.3254C0.680672 41.9702 0.680673 43.0156 1.32544 43.6604L11.8325 54.1675ZM11.349 2L11.349 53L14.651 53L14.651 2L11.349 2Z"
        fill="#84A5FB"></path>
</svg>