<svg width="48" height="48" viewBox="0 0 48 48" fill="none" xmlns="http://www.w3.org/2000/svg">
    <path d="M24 48C10.7448 48 0 37.2552 0 24C0 10.7448 10.7448 0 24 0C37.2552 0 48 10.7448 48 24C48 37.2552 37.2552 48 24 48Z" fill="#16C074" />
    <path d="M32.2249 31.5552V19.5552H20.2249V18.8064C20.2249 17.5656 21.2329 16.5552 22.4761 16.5552H24.7249V12.0552H22.4761C20.6861 12.0571 18.97 12.769 17.7043 14.0347C16.4387 15.3003 15.7268 17.0164 15.7249 18.8064V19.5552H12.7249V24.0552H15.7249V31.5552H12.7249V36.0552H23.2249V31.5552H20.2249V24.0552H27.7681V31.5552H24.7249V36.0552H35.2249V31.5552H32.2249Z" fill="white" />
    <path d="M29.7648 16.733C31.0916 16.733 32.1672 15.6574 32.1672 14.3306C32.1672 13.0038 31.0916 11.9282 29.7648 11.9282C28.438 11.9282 27.3624 13.0038 27.3624 14.3306C27.3624 15.6574 28.438 16.733 29.7648 16.733Z" fill="white" />
</svg>
    