<svg width="48" height="48" viewBox="0 0 48 48" fill="none" xmlns="http://www.w3.org/2000/svg">
    <circle cx="24" cy="24" r="19" fill="white" />
    <path d="M24 0C10.7464 0 0 10.7464 0 24C0 37.2536 10.7464 48 24 48C37.2536 48 48 37.2536 48 24C48 10.7464 37.2536 0 24 0ZM25.9554 29.9357C23.6036 33.2464 18.8786 34.2107 15.1929 32.7911C11.4964 31.3821 8.87143 27.4768 9.1875 23.4964C9.26786 18.6268 13.7518 14.3571 18.6214 14.5232C20.9571 14.4161 23.1536 15.4286 24.9429 16.8589C24.1768 17.7268 23.3893 18.5625 22.5429 19.3393C20.3946 17.8554 17.3357 17.4321 15.1875 19.1464C12.1125 21.2732 11.9732 26.2929 14.9304 28.5804C17.8071 31.1893 23.2446 29.8929 24.0429 25.8964C22.2429 25.8696 20.4321 25.8964 18.6321 25.8375C18.6268 24.7607 18.6214 23.6893 18.6268 22.6125C21.6375 22.6018 24.6536 22.5964 27.6696 22.6232C27.8464 25.1571 27.5089 27.8464 25.9554 29.9357V29.9357ZM38.9464 25.3125C38.0464 25.3232 37.1464 25.3286 36.2464 25.3339C36.2357 26.2339 36.2304 27.1339 36.2304 28.0339H33.5357C33.525 27.1339 33.525 26.2393 33.5196 25.3393C32.6196 25.3286 31.7196 25.3232 30.8196 25.3125V22.6286C31.7196 22.6179 32.6196 22.6125 33.5196 22.6125C33.525 21.7125 33.5357 20.8125 33.5411 19.9125H36.2304L36.2464 22.6125C37.1464 22.6232 38.0464 22.6232 38.9464 22.6286V25.3125Z" fill="#DD4D3F" />
</svg>
    